<?xml version="1.0" encoding="UTF-8"?>
<svg width="273px" height="400px" viewBox="0 0 273 400" version="1.1" xmlns="http://www.w3.org/2000/svg" xmlns:xlink="http://www.w3.org/1999/xlink">
<title>Human/Question Large</title>
<g id="(P)-Error-screen" stroke="none" stroke-width="1" fill="none" fill-rule="evenodd">
    <g id="Generic-error-screen" transform="translate(-1200.000000, -338.000000)">
        <g id="Group" transform="translate(1136.000000, 338.000000)">
            <g id="Rityta-1" transform="translate(64.000000, 0.000000)">
                <g id="woman" transform="translate(33.600000, 65.200000)">
                    <g id="legs" transform="translate(87.600000, 221.200000)" fill-rule="nonzero">
                        <polygon id="Path" fill="#2F3E4C" points="76.032 113.6 79.26 6.944 43.152 6.944 46.376 113.6"></polygon>
                        <path d="M63.076,113.6 L32.4,73.036 L45.816,5.86 L10.176,0.224 L0.188,73.528 C-0.242665255,76.6470699 0.624849852,79.8062707 2.588,82.268 L27.68,113.6 L63.076,113.6 Z" id="Path" fill="#38495C"></path>
                    </g>
                    <g id="head" transform="translate(72.800000, 0.000000)" fill-rule="nonzero">
                        <path d="M65.412,88.448 L61.54,63.836 L61.14,63.568 L47.2,53.768 C47.2,53.768 50.248,51.132 50.8,45.46 C51.308,40.308 47.532,35.648 42.368,35.352 C36.504,35.02 36.076,40.92 36.076,40.92 L9.356,16.184 C8.03445311,14.9563358 5.98954689,14.9563358 4.668,16.184 C4.508,16.336 4.348,16.508 4.188,16.692 C2.828,18.264 1.492,21.128 0.988,26.356 C-0.432,41.308 2.868,83.708 17.848,84.788 C32.828,85.868 45.448,77.748 45.448,77.748 L44.8,86.736 L65.412,88.448 Z" id="Path" fill="#DCB69A"></path>
                        <path d="M74.436,9.888 C68.036,1.74 59.016,-1.856 54.296,1.852 C52.959857,2.94944471 52.0545519,4.48378824 51.74,6.184 C46.768,3.336 41.568,1.6 37.004,1.2 C24.312,0.096 7.484,4.232 0.584,11.136 C-0.616,12.336 1.292,14.464 4.204,16.696 C4.364,16.512 4.524,16.34 4.684,16.188 C6.00554689,14.9603358 8.05045311,14.9603358 9.372,16.188 L23.048,28.848 C26.1300934,31.7090793 28.5093248,35.2437027 30,39.176 C31.316,42.652 32.58,46.532 32.58,48.644 C32.58,52.224 35.848,42.364 37.08,37.928 C37.948,36.5 39.552,35.128 42.528,35.364 C47.624,35.764 51.328,40.436 50.8,45.52 C50.224,51.152 47.2,53.768 47.2,53.768 L61.6,64.168 C63.808,61.344 73.6,46.888 71.64,32.728 C73.888,32.996 75.92,32.576 77.48,31.348 C82.204,27.652 80.84,18.036 74.436,9.888 Z" id="hair" fill="#38495C"></path>
                    </g>
                    <g id="body" transform="translate(0.000000, 82.000000)">
                        <path d="M34.552,83.348 L33.472,100.072 C33.472,100.072 14.452,105.948 5.504,100.204 C-3.444,94.46 1.904,89.632 1.904,89.632 C1.904,89.632 9.652,80.444 34.552,83.348 Z" id="Path" fill="#DCB69A"></path>
                        <rect id="Rectangle" fill="#615E72" fill-rule="nonzero" x="29.972" y="76.936" width="110.876" height="29.652"></rect>
                        <path d="M31.488,41.86 L41.42,30.776 C41.42,30.776 37.548,12.452 31.356,4.88 C25.164,-2.692 17.976,0.28 16.156,2.836 C14.336,5.392 13.684,15.42 19.72,24.836 C25.08,33.2 31.488,41.86 31.488,41.86 Z" id="Path" fill="#DCB69A" fill-rule="nonzero"></path>
                        <path d="M173.076,90.188 L173.076,52.324 C173.076,40.572 165.016,30.324 153.076,24.928 C153.076,24.86 153.076,24.792 153.076,24.72 L153.076,16.764 C153.076,13.4042375 151.74134,10.1820821 149.365629,7.8063713 C146.989918,5.43066045 143.767762,4.096 140.408,4.096 L113.772,4.096 C110.568102,4.09820806 107.971999,6.69610076 107.972,9.9 L107.972,21.868 C96.028,24.78 87.344,33.66 87.344,44.168 L87.344,60.776 L42.852,23.324 L23.756,46 L87.316,99.504 L87.316,156.184 C87.3159981,157.441649 88.3343532,158.461794 89.592,158.464 L170.888,158.464 C171.492694,158.464 172.072621,158.223786 172.500203,157.796203 C172.927786,157.368621 173.168,156.788694 173.168,156.184 L173.168,90.8 C173.168,90.5926544 173.135722,90.3865628 173.076,90.188 L173.076,90.188 Z" id="Path" fill="#7B768E" fill-rule="nonzero"></path>
                    </g>
                </g>
                <path d="M58.3124545,123.661766 C59.9538447,123.661766 61.2844545,124.992375 61.2844545,126.633766 L61.2844545,163.501766 C61.2844545,165.143156 59.9538447,166.473766 58.3124545,166.473766 C56.6710642,166.473766 55.3404545,165.143156 55.3404545,163.501766 L55.3404545,126.633766 C55.3404545,124.992375 56.6710642,123.661766 58.3124545,123.661766 Z" id="phone" fill="#38495C" fill-rule="nonzero" transform="translate(58.312454, 145.067766) rotate(-32.100000) translate(-58.312454, -145.067766) "></path>
                <g id="speechbubble" transform="translate(192.000000, 0.000000)">
                    <path d="M41.896,0.323994821 C31.6350222,0.318693878 21.7924915,4.39113247 14.5350083,11.6448646 C7.2775251,18.8985968 3.19999863,28.7390209 3.2,39 L3.2,39 C3.19070426,46.9740294 5.65914895,54.7539633 10.264,61.264 L7.256,67.8239948 L0.16,83.292 L15.628,76.2 L23.08,72.8 C35.0603281,79.4684193 49.6756131,79.2961426 61.4954272,72.3471807 C73.3152413,65.3982188 80.5729908,52.7111661 80.572,39 L80.572,39 C80.572,17.639835 63.256165,0.323994821 41.896,0.323994821 Z" id="Path" fill="#E3BB70"></path>
                    <path d="M37.944,48.068 C37.944,45.564 38.2533333,43.564 38.872,42.068 C39.4906667,40.572 40.7173333,38.9493333 42.552,37.2 C44.384,35.424 45.544,34.16 46.032,33.408 C46.7699117,32.3094201 47.1627148,31.0153988 47.16,29.692 C47.16,27.9293333 46.7226667,26.5826667 45.848,25.652 C44.9733333,24.7213333 43.6906667,24.2546667 42,24.252 C40.5747998,24.1815276 39.1774928,24.6644942 38.1,25.6 C37.0923842,26.5563021 36.5519386,27.9044947 36.62,29.292 L29.772,29.292 C29.8093333,25.964 30.9413333,23.3306667 33.168,21.392 C35.3946667,19.4533333 38.3386667,18.4906667 42,18.5038634 C45.7813333,18.5038634 48.7266667,19.4626667 50.836,21.38 C52.9453333,23.2973333 54,25.9773333 54,29.42 C54,32.4893333 52.572,35.508 49.716,38.476 L46.248,41.888 C45.008,43.3013333 44.3693333,45.3613333 44.332,48.068 L37.944,48.068 Z M37.464,56.8 C37.4245272,55.8004153 37.8027575,54.8294792 38.508,54.12 C40.1518228,52.7513485 42.541789,52.7631633 44.172,54.148 C44.8641577,54.8534212 45.2358767,55.8123694 45.2,56.8 C45.2259523,57.7635064 44.8592311,58.6961911 44.184,59.384 C43.5066667,60.0746667 42.548,60.4213333 41.308,60.4240153 C40.068,60.4266667 39.1146667,60.08 38.448,59.384 C37.7891114,58.6879902 37.4349579,57.7579772 37.464,56.8 L37.464,56.8 Z" id="Shape" fill="#FFFFFF" fill-rule="nonzero"></path>
                </g>
                <path d="M167.688,249.924 L1.6,249.924 C0.846033807,249.924 0.23420458,250.534037 0.232,251.288 L0.232,253.712 C0.232,254.074816 0.376128158,254.422772 0.632677923,254.679322 C0.889227689,254.935872 1.23718384,255.08 1.6,255.08 L77.704,255.08 L77.704,400 L91.828,400 L91.828,255.08 L167.688,255.08 C168.443526,255.08 169.056,254.467526 169.056,253.712 L169.056,251.288 C169.053795,250.534037 168.441966,249.924 167.688,249.924 Z" id="table" fill="#38495C" fill-rule="nonzero"></path>
                <g id="coffee" transform="translate(12.400000, 187.200000)" fill-rule="nonzero">
                    <path d="M14.356,27.84 C15.2117507,25.6752164 15.3629217,23.2956734 14.788,21.04 C14.672,20.492 14.484,19.964 14.324,19.44 C14.104,18.912 13.924,18.436 13.676,17.78 C13.4419704,17.1403479 13.26266,16.4819845 13.14,15.812 C13.0233669,15.0816343 13.0072171,14.3387443 13.092,13.604 C13.2099544,12.8490796 13.4561716,12.119898 13.82,11.448 C14.176,10.812 14.552,10.304 14.804,9.888 C15.2766243,8.98029837 15.549406,7.98191756 15.604,6.96 C15.7191304,5.82362785 15.7083987,4.6780159 15.572,3.544 C15.4321447,2.35257228 15.1432174,1.18342445 14.712,0.064 C15.1843791,0.486825683 15.6010564,0.968020722 15.952,1.496 C16.3125852,2.02829046 16.6194239,2.59507106 16.868,3.188 C17.3693556,4.39773025 17.6693211,5.68136634 17.756,6.988 C17.806082,7.66303625 17.7846293,8.34147636 17.692,9.012 C17.6050218,9.74546439 17.3925946,10.4585162 17.064,11.12 C16.736,11.772 16.4,12.256 16.192,12.7 C15.9867267,13.1035986 15.8514713,13.5391213 15.792,13.988 C15.7041017,14.9993515 15.8197099,16.0180637 16.132,16.984 C16.272,17.48 16.468,18.16 16.628,18.788 L16.804,19.764 C16.864,20.088 16.868,20.424 16.9,20.752 C16.9886342,22.0733014 16.8257535,23.3994218 16.42,24.66 C16.2147576,25.2697119 15.9395911,25.8536019 15.6,26.4 C15.2686453,26.9460924 14.8481611,27.4328265 14.356,27.84 L14.356,27.84 Z" id="Path" fill="#B2B2B2"></path>
                    <path d="M30.716,37.42 L29.2,37.42 L29.2,35.14 C29.2,34.1326326 28.3833674,33.316 27.376,33.316 L2.12,33.316 C1.11419507,33.3182057 0.299999121,34.1341926 0.299999121,35.14 L0.299999121,53.824 C0.29893883,56.2413456 1.25848187,58.5600462 2.96742838,60.2697429 C4.67637489,61.9794396 6.99465414,62.94 9.412,62.94 L20.088,62.94 C24.073753,62.9360918 27.595268,60.3443605 28.784,56.54 L30.716,56.54 C35.0591673,56.54 38.58,53.0191673 38.58,48.676 L38.58,45.28 C38.5777917,40.9383949 35.0576057,37.4199994 30.716,37.42 L30.716,37.42 Z M34.936,48.696 C34.9315916,51.0241654 33.0441685,52.9097995 30.716,52.912 L29.2,52.912 L29.2,41.064 L30.712,41.064 C33.0401685,41.0662005 34.9275916,42.9518346 34.932,45.28 L34.936,48.696 Z" id="Shape" fill="#ADA9BA"></path>
                </g>
            </g>
        </g>
    </g>
</g>
</svg>